<?xml version="1.0" encoding="UTF-8"?>
<svg xmlns="http://www.w3.org/2000/svg" xmlns:xlink="http://www.w3.org/1999/xlink" width="288px" height="280.8px" viewBox="0 0 288 280.8" version="1.1" id="Fig:dens">
  <metadata xmlns:gridsvg="http://www.stat.auckland.ac.nz/~paul/R/gridSVG/">
    <gridsvg:generator name="gridSVG" version="1.7-2" time="2021-04-05 20:13:19"/>
    <gridsvg:argument name="name" value="/Users/lexikotorov/Desktop/School yeehaw/Assignment2/outlier/dens.svg"/>
    <gridsvg:argument name="exportCoords" value="none"/>
    <gridsvg:argument name="exportMappings" value="none"/>
    <gridsvg:argument name="exportJS" value="none"/>
    <gridsvg:argument name="res" value="72"/>
    <gridsvg:argument name="prefix" value="Fig:dens"/>
    <gridsvg:argument name="addClasses" value="FALSE"/>
    <gridsvg:argument name="indent" value="TRUE"/>
    <gridsvg:argument name="htmlWrapper" value="FALSE"/>
    <gridsvg:argument name="usePaths" value="none"/>
    <gridsvg:argument name="uniqueNames" value="TRUE"/>
    <gridsvg:separator name="id.sep" value="."/>
    <gridsvg:separator name="gPath.sep" value="::"/>
    <gridsvg:separator name="vpPath.sep" value="::"/>
  </metadata>
  <g transform="translate(0, 280.8) scale(1, -1)">
    <g id="Fig:densgridSVG" fill="none" stroke="rgb(0,0,0)" stroke-dasharray="none" stroke-width="0.75" font-size="12" font-family="Helvetica, Arial, FreeSans, Liberation Sans, Nimbus Sans L, sans-serif" opacity="1" stroke-linecap="round" stroke-linejoin="round" stroke-miterlimit="10" stroke-opacity="1" fill-opacity="0" font-weight="normal" font-style="normal">
      <g id="Fig:densplot_01.background.1">
        <rect id="Fig:densplot_01.background.1.1" x="0" y="0" width="288" height="280.8" transform="" fill="none" stroke="none" stroke-opacity="0" fill-opacity="0"/>
      </g>
      <g id="Fig:densplot_01.toplevel.vp.1" font-size="12">
        <g id="Fig:densplot_01.main.vp.1">
          <g id="Fig:densGRID.VP.19.1">
            <g id="Fig:dens.key.frame.1">
              <g id="Fig:densGRID.VP.20.1">
                <g id="Fig:densGRID.cellGrob.26.1">
                  <g id="Fig:dens.key.background.1">
                    <rect id="Fig:dens.key.background.1.1" x="87.4" y="251.81" width="113.21" height="22.99" transform="" fill="none" opacity="1" stroke="none" stroke-opacity="0" fill-opacity="0"/>
                  </g>
                </g>
              </g>
              <g id="Fig:densGRID.VP.21.1">
                <g id="Fig:densGRID.cellGrob.27.1">
                  <g id="Fig:dens.key.rect.1.1.1">
                    <rect id="Fig:dens.key.rect.1.1.1.1" x="94.07" y="263.3" width="33.36" height="11.5" transform="" opacity="1" fill="rgb(228,26,28)" stroke="rgb(0,0,0)" stroke-opacity="1" fill-opacity="1"/>
                  </g>
                </g>
              </g>
              <g id="Fig:densGRID.VP.22.1">
                <g id="Fig:densGRID.cellGrob.28.1">
                  <g id="Fig:dens.key.rect.1.2.1">
                    <rect id="Fig:dens.key.rect.1.2.1.1" x="94.07" y="251.81" width="33.36" height="11.5" transform="" opacity="1" fill="rgb(55,126,184)" stroke="rgb(0,0,0)" stroke-opacity="1" fill-opacity="1"/>
                  </g>
                </g>
              </g>
              <g id="Fig:densGRID.VP.23.1">
                <g id="Fig:densGRID.cellGrob.29.1">
                  <g id="Fig:dens.key.text.2.1.1">
                    <g id="Fig:dens.key.text.2.1.1.1" transform="translate(140.77, 269.05)" stroke-width="0.1">
                      <g id="Fig:dens.key.text.2.1.1.1.scale" transform="scale(1, -1)">
                        <text x="0" y="0" id="Fig:dens.key.text.2.1.1.1.text" text-anchor="start" stroke="rgb(0,0,0)" opacity="1" fill="rgb(0,0,0)" stroke-opacity="1" fill-opacity="1" font-size="12" font-weight="normal" font-style="normal">
                          <tspan id="Fig:dens.key.text.2.1.1.1.tspan.1" dy="4.31" x="0">High.Flow</tspan>
                        </text>
                      </g>
                    </g>
                  </g>
                </g>
              </g>
              <g id="Fig:densGRID.VP.24.1">
                <g id="Fig:densGRID.cellGrob.30.1">
                  <g id="Fig:dens.key.text.2.2.1">
                    <g id="Fig:dens.key.text.2.2.1.1" transform="translate(140.77, 257.56)" stroke-width="0.1">
                      <g id="Fig:dens.key.text.2.2.1.1.scale" transform="scale(1, -1)">
                        <text x="0" y="0" id="Fig:dens.key.text.2.2.1.1.text" text-anchor="start" stroke="rgb(0,0,0)" opacity="1" fill="rgb(0,0,0)" stroke-opacity="1" fill-opacity="1" font-size="12" font-weight="normal" font-style="normal">
                          <tspan id="Fig:dens.key.text.2.2.1.1.tspan.1" dy="4.31" x="0">Low.Flow</tspan>
                        </text>
                      </g>
                    </g>
                  </g>
                </g>
              </g>
            </g>
          </g>
        </g>
        <g id="Fig:densplot_01.ylab.vp.1">
          <g id="Fig:densplot_01.ylab.1">
            <g id="Fig:densplot_01.ylab.1.1" transform="translate(10.31, 141)" stroke-width="0.1">
              <g id="Fig:densplot_01.ylab.1.1.scale" transform="scale(1, -1)">
                <text x="0" y="0" id="Fig:densplot_01.ylab.1.1.text" transform="rotate(-90)" text-anchor="middle" opacity="1" stroke="rgb(0,0,0)" fill="rgb(0,0,0)" stroke-opacity="1" fill-opacity="1" font-size="12" font-weight="normal" font-style="normal">
                  <tspan id="Fig:densplot_01.ylab.1.1.tspan.1" dy="4.31" x="0">Density</tspan>
                </text>
              </g>
            </g>
          </g>
        </g>
        <g id="Fig:densplot_01.figure.vp.1"/>
        <defs>
          <clipPath id="Fig:densplot_01.panel.1.1.vp.1.clipPath">
            <rect x="44.8" y="42.19" width="231.2" height="197.62" fill="none" stroke="none"/>
          </clipPath>
        </defs>
        <g id="Fig:densplot_01.panel.1.1.vp.1" clip-path="url(#Fig:densplot_01.panel.1.1.vp.1.clipPath)"/>
        <g id="Fig:densplot_01.strip.1.1.off.vp.1"/>
        <g id="Fig:densplot_01.strip.left.1.1.off.vp.1">
          <g id="Fig:densplot_01.ticks.left.panel.1.1.1">
            <polyline id="Fig:densplot_01.ticks.left.panel.1.1.1.1" points="44.8,54.32 39.13,54.32" stroke="rgb(0,0,0)" opacity="1" stroke-dasharray="none" stroke-width="0.75" stroke-opacity="1" fill="none"/>
            <polyline id="Fig:densplot_01.ticks.left.panel.1.1.1.2" points="44.8,96.79 39.13,96.79" stroke="rgb(0,0,0)" opacity="1" stroke-dasharray="none" stroke-width="0.75" stroke-opacity="1" fill="none"/>
            <polyline id="Fig:densplot_01.ticks.left.panel.1.1.1.3" points="44.8,139.25 39.13,139.25" stroke="rgb(0,0,0)" opacity="1" stroke-dasharray="none" stroke-width="0.75" stroke-opacity="1" fill="none"/>
            <polyline id="Fig:densplot_01.ticks.left.panel.1.1.1.4" points="44.8,181.71 39.13,181.71" stroke="rgb(0,0,0)" opacity="1" stroke-dasharray="none" stroke-width="0.75" stroke-opacity="1" fill="none"/>
            <polyline id="Fig:densplot_01.ticks.left.panel.1.1.1.5" points="44.8,224.18 39.13,224.18" stroke="rgb(0,0,0)" opacity="1" stroke-dasharray="none" stroke-width="0.75" stroke-opacity="1" fill="none"/>
          </g>
          <g id="Fig:densplot_01.ticklabels.left.panel.1.1.1">
            <g id="Fig:densplot_01.ticklabels.left.panel.1.1.1.1" transform="translate(33.47, 54.32)" stroke-width="0.1">
              <g id="Fig:densplot_01.ticklabels.left.panel.1.1.1.1.scale" transform="scale(1, -1)">
                <text x="0" y="0" id="Fig:densplot_01.ticklabels.left.panel.1.1.1.1.text" transform="rotate(-90)" text-anchor="middle" stroke="rgb(0,0,0)" opacity="1" fill="rgb(0,0,0)" stroke-opacity="1" fill-opacity="1" font-size="9.6" font-weight="normal" font-style="normal">
                  <tspan id="Fig:densplot_01.ticklabels.left.panel.1.1.1.1.tspan.1" dy="0" x="0">0.0</tspan>
                </text>
              </g>
            </g>
            <g id="Fig:densplot_01.ticklabels.left.panel.1.1.1.2" transform="translate(33.47, 96.79)" stroke-width="0.1">
              <g id="Fig:densplot_01.ticklabels.left.panel.1.1.1.2.scale" transform="scale(1, -1)">
                <text x="0" y="0" id="Fig:densplot_01.ticklabels.left.panel.1.1.1.2.text" transform="rotate(-90)" text-anchor="middle" stroke="rgb(0,0,0)" opacity="1" fill="rgb(0,0,0)" stroke-opacity="1" fill-opacity="1" font-size="9.6" font-weight="normal" font-style="normal">
                  <tspan id="Fig:densplot_01.ticklabels.left.panel.1.1.1.2.tspan.1" dy="0" x="0">0.5</tspan>
                </text>
              </g>
            </g>
            <g id="Fig:densplot_01.ticklabels.left.panel.1.1.1.3" transform="translate(33.47, 139.25)" stroke-width="0.1">
              <g id="Fig:densplot_01.ticklabels.left.panel.1.1.1.3.scale" transform="scale(1, -1)">
                <text x="0" y="0" id="Fig:densplot_01.ticklabels.left.panel.1.1.1.3.text" transform="rotate(-90)" text-anchor="middle" stroke="rgb(0,0,0)" opacity="1" fill="rgb(0,0,0)" stroke-opacity="1" fill-opacity="1" font-size="9.6" font-weight="normal" font-style="normal">
                  <tspan id="Fig:densplot_01.ticklabels.left.panel.1.1.1.3.tspan.1" dy="0" x="0">1.0</tspan>
                </text>
              </g>
            </g>
            <g id="Fig:densplot_01.ticklabels.left.panel.1.1.1.4" transform="translate(33.47, 181.71)" stroke-width="0.1">
              <g id="Fig:densplot_01.ticklabels.left.panel.1.1.1.4.scale" transform="scale(1, -1)">
                <text x="0" y="0" id="Fig:densplot_01.ticklabels.left.panel.1.1.1.4.text" transform="rotate(-90)" text-anchor="middle" stroke="rgb(0,0,0)" opacity="1" fill="rgb(0,0,0)" stroke-opacity="1" fill-opacity="1" font-size="9.6" font-weight="normal" font-style="normal">
                  <tspan id="Fig:densplot_01.ticklabels.left.panel.1.1.1.4.tspan.1" dy="0" x="0">1.5</tspan>
                </text>
              </g>
            </g>
            <g id="Fig:densplot_01.ticklabels.left.panel.1.1.1.5" transform="translate(33.47, 224.18)" stroke-width="0.1">
              <g id="Fig:densplot_01.ticklabels.left.panel.1.1.1.5.scale" transform="scale(1, -1)">
                <text x="0" y="0" id="Fig:densplot_01.ticklabels.left.panel.1.1.1.5.text" transform="rotate(-90)" text-anchor="middle" stroke="rgb(0,0,0)" opacity="1" fill="rgb(0,0,0)" stroke-opacity="1" fill-opacity="1" font-size="9.6" font-weight="normal" font-style="normal">
                  <tspan id="Fig:densplot_01.ticklabels.left.panel.1.1.1.5.tspan.1" dy="0" x="0">2.0</tspan>
                </text>
              </g>
            </g>
          </g>
        </g>
        <g id="Fig:densplot_01.panel.1.1.off.vp.1">
          <g id="Fig:densplot_01.ticks.bottom.panel.1.1.1">
            <polyline id="Fig:densplot_01.ticks.bottom.panel.1.1.1.1" points="51.18,42.19 51.18,36.52" stroke="rgb(0,0,0)" opacity="1" stroke-dasharray="none" stroke-width="0.75" stroke-opacity="1" fill="none"/>
            <polyline id="Fig:densplot_01.ticks.bottom.panel.1.1.1.2" points="100.99,42.19 100.99,36.52" stroke="rgb(0,0,0)" opacity="1" stroke-dasharray="none" stroke-width="0.75" stroke-opacity="1" fill="none"/>
            <polyline id="Fig:densplot_01.ticks.bottom.panel.1.1.1.3" points="150.81,42.19 150.81,36.52" stroke="rgb(0,0,0)" opacity="1" stroke-dasharray="none" stroke-width="0.75" stroke-opacity="1" fill="none"/>
            <polyline id="Fig:densplot_01.ticks.bottom.panel.1.1.1.4" points="200.62,42.19 200.62,36.52" stroke="rgb(0,0,0)" opacity="1" stroke-dasharray="none" stroke-width="0.75" stroke-opacity="1" fill="none"/>
            <polyline id="Fig:densplot_01.ticks.bottom.panel.1.1.1.5" points="250.43,42.19 250.43,36.52" stroke="rgb(0,0,0)" opacity="1" stroke-dasharray="none" stroke-width="0.75" stroke-opacity="1" fill="none"/>
          </g>
          <g id="Fig:densplot_01.ticklabels.bottom.panel.1.1.1">
            <g id="Fig:densplot_01.ticklabels.bottom.panel.1.1.1.1" transform="translate(51.18, 30.85)" stroke-width="0.1">
              <g id="Fig:densplot_01.ticklabels.bottom.panel.1.1.1.1.scale" transform="scale(1, -1)">
                <text x="0" y="0" id="Fig:densplot_01.ticklabels.bottom.panel.1.1.1.1.text" text-anchor="middle" stroke="rgb(0,0,0)" opacity="1" fill="rgb(0,0,0)" stroke-opacity="1" fill-opacity="1" font-size="9.6" font-weight="normal" font-style="normal">
                  <tspan id="Fig:densplot_01.ticklabels.bottom.panel.1.1.1.1.tspan.1" dy="7.18" x="0">0</tspan>
                </text>
              </g>
            </g>
            <g id="Fig:densplot_01.ticklabels.bottom.panel.1.1.1.2" transform="translate(100.99, 30.85)" stroke-width="0.1">
              <g id="Fig:densplot_01.ticklabels.bottom.panel.1.1.1.2.scale" transform="scale(1, -1)">
                <text x="0" y="0" id="Fig:densplot_01.ticklabels.bottom.panel.1.1.1.2.text" text-anchor="middle" stroke="rgb(0,0,0)" opacity="1" fill="rgb(0,0,0)" stroke-opacity="1" fill-opacity="1" font-size="9.6" font-weight="normal" font-style="normal">
                  <tspan id="Fig:densplot_01.ticklabels.bottom.panel.1.1.1.2.tspan.1" dy="7.18" x="0">2</tspan>
                </text>
              </g>
            </g>
            <g id="Fig:densplot_01.ticklabels.bottom.panel.1.1.1.3" transform="translate(150.81, 30.85)" stroke-width="0.1">
              <g id="Fig:densplot_01.ticklabels.bottom.panel.1.1.1.3.scale" transform="scale(1, -1)">
                <text x="0" y="0" id="Fig:densplot_01.ticklabels.bottom.panel.1.1.1.3.text" text-anchor="middle" stroke="rgb(0,0,0)" opacity="1" fill="rgb(0,0,0)" stroke-opacity="1" fill-opacity="1" font-size="9.6" font-weight="normal" font-style="normal">
                  <tspan id="Fig:densplot_01.ticklabels.bottom.panel.1.1.1.3.tspan.1" dy="7.18" x="0">4</tspan>
                </text>
              </g>
            </g>
            <g id="Fig:densplot_01.ticklabels.bottom.panel.1.1.1.4" transform="translate(200.62, 30.85)" stroke-width="0.1">
              <g id="Fig:densplot_01.ticklabels.bottom.panel.1.1.1.4.scale" transform="scale(1, -1)">
                <text x="0" y="0" id="Fig:densplot_01.ticklabels.bottom.panel.1.1.1.4.text" text-anchor="middle" stroke="rgb(0,0,0)" opacity="1" fill="rgb(0,0,0)" stroke-opacity="1" fill-opacity="1" font-size="9.6" font-weight="normal" font-style="normal">
                  <tspan id="Fig:densplot_01.ticklabels.bottom.panel.1.1.1.4.tspan.1" dy="7.18" x="0">6</tspan>
                </text>
              </g>
            </g>
            <g id="Fig:densplot_01.ticklabels.bottom.panel.1.1.1.5" transform="translate(250.43, 30.85)" stroke-width="0.1">
              <g id="Fig:densplot_01.ticklabels.bottom.panel.1.1.1.5.scale" transform="scale(1, -1)">
                <text x="0" y="0" id="Fig:densplot_01.ticklabels.bottom.panel.1.1.1.5.text" text-anchor="middle" stroke="rgb(0,0,0)" opacity="1" fill="rgb(0,0,0)" stroke-opacity="1" fill-opacity="1" font-size="9.6" font-weight="normal" font-style="normal">
                  <tspan id="Fig:densplot_01.ticklabels.bottom.panel.1.1.1.5.tspan.1" dy="7.18" x="0">8</tspan>
                </text>
              </g>
            </g>
          </g>
        </g>
        <defs>
          <clipPath id="Fig:densplot_01.panel.1.1.vp.2.clipPath">
            <rect x="44.8" y="42.19" width="231.2" height="197.62" fill="none" stroke="none"/>
          </clipPath>
        </defs>
        <g id="Fig:densplot_01.panel.1.1.vp.2" clip-path="url(#Fig:densplot_01.panel.1.1.vp.2.clipPath)">
          <g id="Fig:densplot_01.xyplot.lines.group.1.panel.1.1.1">
            <polyline id="Fig:densplot_01.xyplot.lines.group.1.panel.1.1.1.1" points="59.14,54.51 59.54,54.56 59.93,54.62 60.33,54.7 60.73,54.78 61.12,54.89 61.52,55.02 61.92,55.17 62.31,55.35 62.71,55.56 63.11,55.8 63.5,56.07 63.9,56.38 64.29,56.73 64.69,57.13 65.09,57.58 65.48,58.06 65.88,58.6 66.28,59.17 66.67,59.79 67.07,60.46 67.47,61.17 67.86,61.91 68.26,62.67 68.66,63.45 69.05,64.24 69.45,65.04 69.84,65.83 70.24,66.6 70.64,67.34 71.03,68.04 71.43,68.7 71.83,69.28 72.22,69.79 72.62,70.22 73.02,70.57 73.41,70.84 73.81,71.01 74.2,71.07 74.6,71.03 75,70.9 75.39,70.69 75.79,70.4 76.19,70.03 76.58,69.59 76.98,69.09 77.38,68.56 77.77,68 78.17,67.42 78.56,66.83 78.96,66.25 79.36,65.7 79.75,65.17 80.15,64.68 80.55,64.24 80.94,63.85 81.34,63.53 81.74,63.27 82.13,63.08 82.53,62.95 82.92,62.89 83.32,62.88 83.72,62.95 84.11,63.07 84.51,63.24 84.91,63.45 85.3,63.7 85.7,63.98 86.1,64.29 86.49,64.62 86.89,64.96 87.28,65.31 87.68,65.66 88.08,66.01 88.47,66.35 88.87,66.69 89.27,67.01 89.66,67.32 90.06,67.61 90.46,67.89 90.85,68.16 91.25,68.4 91.64,68.63 92.04,68.84 92.44,69.04 92.83,69.22 93.23,69.39 93.63,69.55 94.02,69.69 94.42,69.83 94.82,69.95 95.21,70.07 95.61,70.18 96,70.28 96.4,70.38 96.8,70.47 97.19,70.55 97.59,70.64 97.99,70.71 98.38,70.79 98.78,70.86 99.18,70.92 99.57,70.99 99.97,71.05 100.36,71.11 100.76,71.17 101.16,71.22 101.55,71.28 101.95,71.33 102.35,71.38 102.74,71.43 103.14,71.47 103.54,71.52 103.93,71.56 104.33,71.6 104.72,71.63 105.12,71.67 105.52,71.7 105.91,71.73 106.31,71.76 106.71,71.78 107.1,71.8 107.5,71.82 107.9,71.84 108.29,71.85 108.69,71.86 109.09,71.87 109.48,71.88 109.88,71.89 110.27,71.89 110.67,71.89 111.07,71.89 111.46,71.89 111.86,71.89 112.26,71.88 112.65,71.88 113.05,71.87 113.45,71.86 113.84,71.85 114.24,71.84 114.63,71.83 115.03,71.82 115.43,71.81 115.82,71.8 116.22,71.79 116.62,71.78 117.01,71.77 117.41,71.77 117.81,71.76 118.2,71.75 118.6,71.75 118.99,71.75 119.39,71.75 119.79,71.75 120.18,71.75 120.58,71.75 120.98,71.75 121.37,71.76 121.77,71.76 122.17,71.77 122.56,71.77 122.96,71.78 123.35,71.78 123.75,71.79 124.15,71.79 124.54,71.79 124.94,71.79 125.34,71.78 125.73,71.78 126.13,71.77 126.53,71.76 126.92,71.74 127.32,71.72 127.71,71.7 128.11,71.68 128.51,71.65 128.9,71.62 129.3,71.59 129.7,71.55 130.09,71.51 130.49,71.47 130.89,71.43 131.28,71.39 131.68,71.35 132.07,71.31 132.47,71.27 132.87,71.22 133.26,71.18 133.66,71.14 134.06,71.1 134.45,71.06 134.85,71.02 135.25,70.98 135.64,70.95 136.04,70.91 136.43,70.88 136.83,70.84 137.23,70.81 137.62,70.78 138.02,70.75 138.42,70.72 138.81,70.69 139.21,70.66 139.61,70.63 140,70.6 140.4,70.57 140.79,70.54 141.19,70.51 141.59,70.49 141.98,70.46 142.38,70.44 142.78,70.41 143.17,70.39 143.57,70.36 143.97,70.34 144.36,70.32 144.76,70.3 145.15,70.28 145.55,70.27 145.95,70.25 146.34,70.23 146.74,70.22 147.14,70.2 147.53,70.19 147.93,70.18 148.33,70.16 148.72,70.15 149.12,70.14 149.52,70.12 149.91,70.11 150.31,70.09 150.7,70.08 151.1,70.06 151.5,70.04 151.89,70.03 152.29,70 152.69,69.98 153.08,69.96 153.48,69.93 153.88,69.9 154.27,69.87 154.67,69.84 155.06,69.81 155.46,69.77 155.86,69.73 156.25,69.69 156.65,69.64 157.05,69.59 157.44,69.54 157.84,69.49 158.24,69.44 158.63,69.39 159.03,69.33 159.42,69.27 159.82,69.22 160.22,69.16 160.61,69.1 161.01,69.04 161.41,68.99 161.8,68.93 162.2,68.88 162.6,68.82 162.99,68.77 163.39,68.72 163.78,68.66 164.18,68.61 164.58,68.56 164.97,68.52 165.37,68.47 165.77,68.42 166.16,68.37 166.56,68.32 166.96,68.28 167.35,68.22 167.75,68.17 168.14,68.12 168.54,68.06 168.94,68 169.33,67.94 169.73,67.88 170.13,67.81 170.52,67.74 170.92,67.66 171.32,67.58 171.71,67.5 172.11,67.42 172.5,67.34 172.9,67.25 173.3,67.16 173.69,67.07 174.09,66.97 174.49,66.88 174.88,66.79 175.28,66.7 175.68,66.6 176.07,66.51 176.47,66.42 176.86,66.33 177.26,66.24 177.66,66.15 178.05,66.07 178.45,65.98 178.85,65.9 179.24,65.82 179.64,65.73 180.04,65.65 180.43,65.57 180.83,65.49 181.22,65.42 181.62,65.34 182.02,65.26 182.41,65.18 182.81,65.1 183.21,65.02 183.6,64.94 184,64.86 184.4,64.79 184.79,64.71 185.19,64.63 185.58,64.55 185.98,64.47 186.38,64.39 186.77,64.32 187.17,64.24 187.57,64.17 187.96,64.1 188.36,64.03 188.76,63.96 189.15,63.89 189.55,63.83 189.95,63.76 190.34,63.7 190.74,63.64 191.13,63.59 191.53,63.53 191.93,63.48 192.32,63.43 192.72,63.38 193.12,63.33 193.51,63.29 193.91,63.24 194.31,63.2 194.7,63.15 195.1,63.11 195.49,63.06 195.89,63.02 196.29,62.98 196.68,62.93 197.08,62.88 197.48,62.83 197.87,62.78 198.27,62.73 198.67,62.68 199.06,62.62 199.46,62.56 199.85,62.5 200.25,62.44 200.65,62.38 201.04,62.31 201.44,62.24 201.84,62.17 202.23,62.1 202.63,62.02 203.03,61.94 203.42,61.87 203.82,61.79 204.21,61.7 204.61,61.62 205.01,61.54 205.4,61.46 205.8,61.37 206.2,61.29 206.59,61.21 206.99,61.13 207.39,61.05 207.78,60.97 208.18,60.89 208.57,60.82 208.97,60.74 209.37,60.67 209.76,60.6 210.16,60.53 210.56,60.46 210.95,60.39 211.35,60.33 211.75,60.26 212.14,60.2 212.54,60.13 212.93,60.07 213.33,60.01 213.73,59.95 214.12,59.88 214.52,59.82 214.92,59.76 215.31,59.7 215.71,59.64 216.11,59.57 216.5,59.51 216.9,59.45 217.29,59.39 217.69,59.33 218.09,59.27 218.48,59.21 218.88,59.15 219.28,59.09 219.67,59.03 220.07,58.97 220.47,58.92 220.86,58.86 221.26,58.81 221.65,58.76 222.05,58.71 222.45,58.66 222.84,58.61 223.24,58.56 223.64,58.51 224.03,58.47 224.43,58.42 224.83,58.38 225.22,58.33 225.62,58.29 226.01,58.24 226.41,58.2 226.81,58.15 227.2,58.11 227.6,58.06 228,58.02 228.39,57.98 228.79,57.93 229.19,57.88 229.58,57.84 229.98,57.79 230.38,57.75 230.77,57.7 231.17,57.66 231.56,57.61 231.96,57.57 232.36,57.52 232.75,57.48 233.15,57.43 233.55,57.39 233.94,57.35 234.34,57.3 234.74,57.26 235.13,57.22 235.53,57.18 235.92,57.13 236.32,57.09 236.72,57.05 237.11,57 237.51,56.96 237.91,56.91 238.3,56.86 238.7,56.81 239.1,56.76 239.49,56.71 239.89,56.66 240.28,56.6 240.68,56.54 241.08,56.48 241.47,56.42 241.87,56.36 242.27,56.29 242.66,56.22 243.06,56.15 243.46,56.08 243.85,56 244.25,55.93 244.64,55.85 245.04,55.77 245.44,55.69 245.83,55.61 246.23,55.54 246.63,55.46 247.02,55.38 247.42,55.31 247.82,55.23 248.21,55.16 248.61,55.09 249,55.03 249.4,54.96 249.8,54.9 250.19,54.85 250.59,54.79 250.99,54.74 251.38,54.7 251.78,54.65 252.18,54.61 252.57,54.58 252.97,54.54 253.36,54.52 253.76,54.49 254.16,54.46 254.55,54.44 254.95,54.43 255.35,54.41 255.74,54.4 256.14,54.38 256.54,54.37 256.93,54.36 257.33,54.36 257.72,54.35 258.12,54.34 258.52,54.34 258.91,54.34 259.31,54.33 259.71,54.33 260.1,54.33 260.5,54.33 260.9,54.33 261.29,54.32 261.69,54.32" stroke-dasharray="none" stroke="rgb(228,26,28)" stroke-width="0.75" opacity="1" stroke-opacity="1" fill="none"/>
          </g>
          <g id="Fig:densplot_01.xyplot.lines.group.2.panel.1.1.1">
            <polyline id="Fig:densplot_01.xyplot.lines.group.2.panel.1.1.1.1" points="59,54.77 59.4,54.89 59.79,55.03 60.19,55.2 60.59,55.42 60.98,55.67 61.38,55.97 61.78,56.32 62.18,56.74 62.57,57.22 62.97,57.79 63.37,58.43 63.76,59.17 64.16,59.99 64.56,60.91 64.95,61.95 65.35,63.1 65.75,64.35 66.14,65.71 66.54,67.17 66.94,68.73 67.33,70.38 67.73,72.12 68.13,73.92 68.53,75.77 68.92,77.64 69.32,79.53 69.72,81.4 70.11,83.23 70.51,84.99 70.91,86.66 71.3,88.22 71.7,89.65 72.1,90.89 72.49,91.94 72.89,92.78 73.29,93.4 73.68,93.8 74.08,93.98 74.48,93.89 74.88,93.54 75.27,92.96 75.67,92.17 76.07,91.19 76.46,90.01 76.86,88.65 77.26,87.14 77.65,85.52 78.05,83.81 78.45,82.04 78.84,80.23 79.24,78.41 79.64,76.61 80.03,74.85 80.43,73.15 80.83,71.52 81.23,69.99 81.62,68.57 82.02,67.29 82.42,66.13 82.81,65.1 83.21,64.21 83.61,63.45 84,62.83 84.4,62.36 84.8,62.02 85.19,61.79 85.59,61.67 85.99,61.65 86.38,61.74 86.78,61.93 87.18,62.18 87.58,62.5 87.97,62.87 88.37,63.29 88.77,63.75 89.16,64.23 89.56,64.73 89.96,65.23 90.35,65.74 90.75,66.24 91.15,66.73 91.54,67.2 91.94,67.65 92.34,68.08 92.73,68.48 93.13,68.85 93.53,69.19 93.93,69.51 94.32,69.79 94.72,70.06 95.12,70.3 95.51,70.52 95.91,70.72 96.31,70.9 96.7,71.07 97.1,71.22 97.5,71.36 97.89,71.5 98.29,71.63 98.69,71.74 99.08,71.86 99.48,71.96 99.88,72.07 100.28,72.16 100.67,72.25 101.07,72.34 101.47,72.42 101.86,72.49 102.26,72.56 102.66,72.62 103.05,72.68 103.45,72.73 103.85,72.77 104.24,72.81 104.64,72.84 105.04,72.86 105.43,72.88 105.83,72.9 106.23,72.9 106.63,72.91 107.02,72.91 107.42,72.91 107.82,72.9 108.21,72.89 108.61,72.88 109.01,72.86 109.4,72.85 109.8,72.83 110.2,72.81 110.59,72.79 110.99,72.76 111.39,72.74 111.78,72.71 112.18,72.68 112.58,72.66 112.98,72.63 113.37,72.6 113.77,72.57 114.17,72.53 114.56,72.5 114.96,72.47 115.36,72.43 115.75,72.4 116.15,72.36 116.55,72.32 116.94,72.28 117.34,72.24 117.74,72.2 118.13,72.16 118.53,72.11 118.93,72.07 119.33,72.02 119.72,71.97 120.12,71.92 120.52,71.87 120.91,71.82 121.31,71.77 121.71,71.72 122.1,71.66 122.5,71.61 122.9,71.56 123.29,71.5 123.69,71.45 124.09,71.39 124.48,71.34 124.88,71.28 125.28,71.23 125.68,71.17 126.07,71.12 126.47,71.07 126.87,71.01 127.26,70.96 127.66,70.91 128.06,70.86 128.45,70.8 128.85,70.75 129.25,70.7 129.64,70.65 130.04,70.59 130.44,70.54 130.83,70.49 131.23,70.44 131.63,70.38 132.03,70.33 132.42,70.27 132.82,70.22 133.22,70.16 133.61,70.11 134.01,70.05 134.41,69.99 134.8,69.93 135.2,69.88 135.6,69.82 135.99,69.76 136.39,69.69 136.79,69.63 137.18,69.57 137.58,69.51 137.98,69.44 138.38,69.38 138.77,69.32 139.17,69.25 139.57,69.18 139.96,69.12 140.36,69.05 140.76,68.98 141.15,68.91 141.55,68.84 141.95,68.77 142.34,68.7 142.74,68.63 143.14,68.56 143.53,68.49 143.93,68.42 144.33,68.35 144.73,68.28 145.12,68.21 145.52,68.14 145.92,68.08 146.31,68.01 146.71,67.94 147.11,67.87 147.5,67.8 147.9,67.74 148.3,67.67 148.69,67.6 149.09,67.53 149.49,67.47 149.88,67.4 150.28,67.33 150.68,67.26 151.08,67.19 151.47,67.12 151.87,67.05 152.27,66.98 152.66,66.9 153.06,66.83 153.46,66.75 153.85,66.68 154.25,66.6 154.65,66.52 155.04,66.45 155.44,66.37 155.84,66.29 156.23,66.21 156.63,66.13 157.03,66.06 157.43,65.98 157.82,65.9 158.22,65.83 158.62,65.75 159.01,65.68 159.41,65.6 159.81,65.53 160.2,65.46 160.6,65.39 161,65.32 161.39,65.25 161.79,65.19 162.19,65.12 162.58,65.06 162.98,64.99 163.38,64.93 163.78,64.86 164.17,64.8 164.57,64.74 164.97,64.68 165.36,64.61 165.76,64.55 166.16,64.49 166.55,64.43 166.95,64.37 167.35,64.3 167.74,64.24 168.14,64.18 168.54,64.12 168.93,64.06 169.33,63.99 169.73,63.93 170.13,63.87 170.52,63.81 170.92,63.74 171.32,63.68 171.71,63.62 172.11,63.56 172.51,63.5 172.9,63.44 173.3,63.38 173.7,63.32 174.09,63.25 174.49,63.19 174.89,63.14 175.28,63.08 175.68,63.02 176.08,62.96 176.48,62.9 176.87,62.84 177.27,62.78 177.67,62.72 178.06,62.67 178.46,62.61 178.86,62.55 179.25,62.49 179.65,62.43 180.05,62.38 180.44,62.32 180.84,62.26 181.24,62.2 181.63,62.14 182.03,62.08 182.43,62.02 182.83,61.96 183.22,61.9 183.62,61.84 184.02,61.78 184.41,61.71 184.81,61.65 185.21,61.59 185.6,61.52 186,61.46 186.4,61.39 186.79,61.32 187.19,61.26 187.59,61.19 187.98,61.13 188.38,61.06 188.78,61 189.18,60.93 189.57,60.87 189.97,60.8 190.37,60.74 190.76,60.68 191.16,60.62 191.56,60.56 191.95,60.5 192.35,60.45 192.75,60.39 193.14,60.34 193.54,60.29 193.94,60.24 194.33,60.19 194.73,60.14 195.13,60.09 195.53,60.04 195.92,60 196.32,59.95 196.72,59.9 197.11,59.86 197.51,59.82 197.91,59.77 198.3,59.73 198.7,59.69 199.1,59.64 199.49,59.6 199.89,59.56 200.29,59.52 200.68,59.48 201.08,59.44 201.48,59.4 201.88,59.36 202.27,59.32 202.67,59.28 203.07,59.25 203.46,59.21 203.86,59.17 204.26,59.14 204.65,59.1 205.05,59.07 205.45,59.03 205.84,58.99 206.24,58.96 206.64,58.92 207.03,58.89 207.43,58.85 207.83,58.82 208.23,58.78 208.62,58.74 209.02,58.7 209.42,58.66 209.81,58.62 210.21,58.58 210.61,58.54 211,58.49 211.4,58.45 211.8,58.41 212.19,58.36 212.59,58.32 212.99,58.27 213.38,58.23 213.78,58.18 214.18,58.14 214.58,58.09 214.97,58.04 215.37,58 215.77,57.96 216.16,57.91 216.56,57.87 216.96,57.83 217.35,57.78 217.75,57.74 218.15,57.7 218.54,57.66 218.94,57.62 219.34,57.58 219.73,57.55 220.13,57.51 220.53,57.47 220.93,57.44 221.32,57.4 221.72,57.37 222.12,57.33 222.51,57.3 222.91,57.26 223.31,57.23 223.7,57.2 224.1,57.17 224.5,57.13 224.89,57.1 225.29,57.07 225.69,57.04 226.08,57.01 226.48,56.98 226.88,56.95 227.28,56.92 227.67,56.88 228.07,56.85 228.47,56.82 228.86,56.79 229.26,56.76 229.66,56.73 230.05,56.7 230.45,56.67 230.85,56.64 231.24,56.61 231.64,56.58 232.04,56.55 232.43,56.52 232.83,56.49 233.23,56.46 233.63,56.43 234.02,56.4 234.42,56.37 234.82,56.34 235.21,56.31 235.61,56.29 236.01,56.26 236.4,56.23 236.8,56.2 237.2,56.17 237.59,56.14 237.99,56.11 238.39,56.08 238.78,56.05 239.18,56.01 239.58,55.98 239.98,55.94 240.37,55.91 240.77,55.87 241.17,55.83 241.56,55.79 241.96,55.74 242.36,55.7 242.75,55.65 243.15,55.61 243.55,55.56 243.94,55.51 244.34,55.46 244.74,55.4 245.13,55.35 245.53,55.3 245.93,55.24 246.33,55.19 246.72,55.14 247.12,55.08 247.52,55.03 247.91,54.98 248.31,54.93 248.71,54.88 249.1,54.83 249.5,54.79 249.9,54.75 250.29,54.71 250.69,54.67 251.09,54.63 251.48,54.6 251.88,54.57 252.28,54.54 252.68,54.51 253.07,54.49 253.47,54.47 253.87,54.45 254.26,54.43 254.66,54.41 255.06,54.4 255.45,54.39 255.85,54.38 256.25,54.37 256.64,54.36 257.04,54.35 257.44,54.35 257.83,54.34 258.23,54.34 258.63,54.34 259.03,54.33 259.42,54.33 259.82,54.33 260.22,54.33 260.61,54.33 261.01,54.32 261.41,54.32 261.8,54.32" stroke-dasharray="none" stroke="rgb(228,26,28)" stroke-width="0.75" opacity="1" stroke-opacity="1" fill="none"/>
          </g>
          <g id="Fig:densplot_01.xyplot.lines.group.3.panel.1.1.1">
            <polyline id="Fig:densplot_01.xyplot.lines.group.3.panel.1.1.1.1" points="59.04,54.7 59.44,54.8 59.83,54.92 60.23,55.07 60.63,55.25 61.02,55.46 61.42,55.71 61.82,56.01 62.21,56.36 62.61,56.77 63.01,57.25 63.4,57.8 63.8,58.42 64.2,59.11 64.59,59.89 64.99,60.78 65.39,61.75 65.78,62.81 66.18,63.96 66.58,65.2 66.97,66.52 67.37,67.93 67.77,69.4 68.16,70.92 68.56,72.48 68.96,74.07 69.36,75.67 69.75,77.25 70.15,78.79 70.55,80.28 70.94,81.69 71.34,83 71.74,84.2 72.13,85.23 72.53,86.1 72.93,86.8 73.32,87.32 73.72,87.65 74.12,87.78 74.51,87.67 74.91,87.36 75.31,86.86 75.7,86.18 76.1,85.34 76.5,84.34 76.89,83.17 77.29,81.89 77.69,80.52 78.08,79.08 78.48,77.59 78.88,76.07 79.28,74.54 79.67,73.04 80.07,71.58 80.47,70.17 80.86,68.83 81.26,67.57 81.66,66.42 82.05,65.38 82.45,64.45 82.85,63.64 83.24,62.93 83.64,62.35 84.04,61.89 84.43,61.56 84.83,61.32 85.23,61.19 85.62,61.14 86.02,61.19 86.42,61.32 86.81,61.52 87.21,61.78 87.61,62.09 88,62.44 88.4,62.83 88.8,63.25 89.2,63.68 89.59,64.12 89.99,64.57 90.39,65.02 90.78,65.46 91.18,65.89 91.58,66.31 91.97,66.71 92.37,67.1 92.77,67.46 93.16,67.81 93.56,68.14 93.96,68.45 94.35,68.74 94.75,69.01 95.15,69.28 95.54,69.53 95.94,69.76 96.34,69.99 96.73,70.2 97.13,70.41 97.53,70.61 97.92,70.81 98.32,70.99 98.72,71.17 99.12,71.34 99.51,71.51 99.91,71.67 100.31,71.82 100.7,71.96 101.1,72.1 101.5,72.22 101.89,72.34 102.29,72.45 102.69,72.55 103.08,72.64 103.48,72.72 103.88,72.79 104.27,72.85 104.67,72.91 105.07,72.96 105.46,73 105.86,73.03 106.26,73.06 106.65,73.08 107.05,73.1 107.45,73.11 107.84,73.12 108.24,73.12 108.64,73.13 109.04,73.13 109.43,73.12 109.83,73.12 110.23,73.11 110.62,73.1 111.02,73.09 111.42,73.08 111.81,73.07 112.21,73.06 112.61,73.04 113,73.03 113.4,73.01 113.8,73 114.19,72.98 114.59,72.97 114.99,72.95 115.38,72.93 115.78,72.91 116.18,72.89 116.57,72.87 116.97,72.85 117.37,72.83 117.76,72.8 118.16,72.78 118.56,72.75 118.96,72.73 119.35,72.7 119.75,72.67 120.15,72.63 120.54,72.6 120.94,72.56 121.34,72.52 121.73,72.48 122.13,72.44 122.53,72.39 122.92,72.34 123.32,72.29 123.72,72.24 124.11,72.19 124.51,72.13 124.91,72.07 125.3,72.01 125.7,71.95 126.1,71.89 126.49,71.83 126.89,71.77 127.29,71.71 127.68,71.65 128.08,71.58 128.48,71.52 128.88,71.46 129.27,71.4 129.67,71.34 130.07,71.28 130.46,71.22 130.86,71.16 131.26,71.11 131.65,71.05 132.05,70.99 132.45,70.94 132.84,70.88 133.24,70.82 133.64,70.77 134.03,70.71 134.43,70.66 134.83,70.6 135.22,70.54 135.62,70.49 136.02,70.43 136.41,70.38 136.81,70.32 137.21,70.27 137.6,70.21 138,70.15 138.4,70.1 138.8,70.04 139.19,69.99 139.59,69.93 139.99,69.87 140.38,69.82 140.78,69.76 141.18,69.7 141.57,69.64 141.97,69.59 142.37,69.53 142.76,69.47 143.16,69.41 143.56,69.35 143.95,69.28 144.35,69.22 144.75,69.16 145.14,69.1 145.54,69.03 145.94,68.97 146.33,68.9 146.73,68.84 147.13,68.77 147.52,68.7 147.92,68.63 148.32,68.56 148.71,68.5 149.11,68.43 149.51,68.36 149.91,68.29 150.3,68.22 150.7,68.15 151.1,68.09 151.49,68.02 151.89,67.95 152.29,67.89 152.68,67.82 153.08,67.76 153.48,67.7 153.87,67.64 154.27,67.58 154.67,67.52 155.06,67.46 155.46,67.41 155.86,67.35 156.25,67.3 156.65,67.25 157.05,67.2 157.44,67.14 157.84,67.09 158.24,67.04 158.63,66.99 159.03,66.94 159.43,66.89 159.83,66.84 160.22,66.78 160.62,66.73 161.02,66.67 161.41,66.62 161.81,66.56 162.21,66.5 162.6,66.43 163,66.37 163.4,66.3 163.79,66.23 164.19,66.16 164.59,66.08 164.98,66 165.38,65.93 165.78,65.84 166.17,65.76 166.57,65.68 166.97,65.59 167.36,65.51 167.76,65.42 168.16,65.33 168.55,65.25 168.95,65.16 169.35,65.07 169.75,64.99 170.14,64.9 170.54,64.82 170.94,64.73 171.33,64.65 171.73,64.57 172.13,64.49 172.52,64.41 172.92,64.33 173.32,64.26 173.71,64.19 174.11,64.12 174.51,64.05 174.9,63.98 175.3,63.91 175.7,63.85 176.09,63.78 176.49,63.72 176.89,63.65 177.28,63.59 177.68,63.53 178.08,63.47 178.47,63.41 178.87,63.35 179.27,63.29 179.67,63.23 180.06,63.17 180.46,63.12 180.86,63.06 181.25,63 181.65,62.94 182.05,62.88 182.44,62.82 182.84,62.76 183.24,62.71 183.63,62.65 184.03,62.59 184.43,62.53 184.82,62.47 185.22,62.41 185.62,62.35 186.01,62.29 186.41,62.23 186.81,62.16 187.2,62.1 187.6,62.04 188,61.97 188.39,61.91 188.79,61.85 189.19,61.78 189.59,61.72 189.98,61.65 190.38,61.58 190.78,61.52 191.17,61.45 191.57,61.39 191.97,61.32 192.36,61.26 192.76,61.19 193.16,61.13 193.55,61.07 193.95,61 194.35,60.94 194.74,60.88 195.14,60.82 195.54,60.77 195.93,60.71 196.33,60.66 196.73,60.6 197.12,60.55 197.52,60.49 197.92,60.44 198.31,60.39 198.71,60.34 199.11,60.29 199.51,60.24 199.9,60.19 200.3,60.15 200.7,60.1 201.09,60.05 201.49,60 201.89,59.96 202.28,59.91 202.68,59.86 203.08,59.81 203.47,59.77 203.87,59.72 204.27,59.67 204.66,59.62 205.06,59.57 205.46,59.52 205.85,59.48 206.25,59.43 206.65,59.38 207.04,59.33 207.44,59.28 207.84,59.23 208.23,59.18 208.63,59.13 209.03,59.09 209.43,59.04 209.82,58.99 210.22,58.94 210.62,58.9 211.01,58.85 211.41,58.81 211.81,58.76 212.2,58.72 212.6,58.67 213,58.63 213.39,58.58 213.79,58.54 214.19,58.5 214.58,58.45 214.98,58.41 215.38,58.37 215.77,58.32 216.17,58.28 216.57,58.24 216.96,58.19 217.36,58.15 217.76,58.1 218.15,58.06 218.55,58.01 218.95,57.96 219.35,57.92 219.74,57.87 220.14,57.82 220.54,57.77 220.93,57.73 221.33,57.68 221.73,57.63 222.12,57.59 222.52,57.54 222.92,57.49 223.31,57.45 223.71,57.4 224.11,57.36 224.5,57.32 224.9,57.28 225.3,57.24 225.69,57.2 226.09,57.16 226.49,57.12 226.88,57.09 227.28,57.05 227.68,57.02 228.07,56.99 228.47,56.96 228.87,56.93 229.27,56.9 229.66,56.87 230.06,56.85 230.46,56.82 230.85,56.8 231.25,56.77 231.65,56.75 232.04,56.72 232.44,56.7 232.84,56.68 233.23,56.65 233.63,56.63 234.03,56.61 234.42,56.58 234.82,56.56 235.22,56.53 235.61,56.51 236.01,56.48 236.41,56.45 236.8,56.42 237.2,56.39 237.6,56.35 237.99,56.32 238.39,56.28 238.79,56.24 239.19,56.2 239.58,56.16 239.98,56.11 240.38,56.07 240.77,56.02 241.17,55.97 241.57,55.92 241.96,55.87 242.36,55.81 242.76,55.76 243.15,55.7 243.55,55.64 243.95,55.58 244.34,55.52 244.74,55.46 245.14,55.4 245.53,55.34 245.93,55.28 246.33,55.22 246.72,55.16 247.12,55.11 247.52,55.05 247.91,54.99 248.31,54.94 248.71,54.89 249.11,54.84 249.5,54.79 249.9,54.75 250.3,54.71 250.69,54.67 251.09,54.63 251.49,54.6 251.88,54.57 252.28,54.54 252.68,54.51 253.07,54.49 253.47,54.46 253.87,54.45 254.26,54.43 254.66,54.41 255.06,54.4 255.45,54.39 255.85,54.38 256.25,54.37 256.64,54.36 257.04,54.35 257.44,54.35 257.83,54.34 258.23,54.34 258.63,54.34 259.03,54.33 259.42,54.33 259.82,54.33 260.22,54.33 260.61,54.33 261.01,54.32 261.41,54.32 261.8,54.32" stroke-dasharray="none" stroke="rgb(228,26,28)" stroke-width="0.75" opacity="1" stroke-opacity="1" fill="none"/>
          </g>
          <g id="Fig:densplot_01.xyplot.lines.group.4.panel.1.1.1">
            <polyline id="Fig:densplot_01.xyplot.lines.group.4.panel.1.1.1.1" points="59.41,55.44 59.81,55.74 60.2,56.1 60.6,56.54 60.99,57.08 61.39,57.74 61.78,58.52 62.17,59.44 62.57,60.52 62.96,61.77 63.36,63.22 63.75,64.92 64.15,66.85 64.54,69.02 64.94,71.45 65.33,74.14 65.73,77.1 66.12,80.39 66.52,83.95 66.91,87.77 67.31,91.82 67.7,96.09 68.1,100.55 68.49,105.18 68.89,109.91 69.28,114.68 69.67,119.43 70.07,124.12 70.46,128.68 70.86,133 71.25,137.02 71.65,140.7 72.04,143.98 72.44,146.8 72.83,149.13 73.23,150.83 73.62,151.9 74.02,152.36 74.41,152.22 74.81,151.48 75.2,150.14 75.6,148.18 75.99,145.61 76.39,142.57 76.78,139.1 77.17,135.26 77.57,131.1 77.96,126.67 78.36,122.04 78.75,117.32 79.15,112.55 79.54,107.79 79.94,103.1 80.33,98.53 80.73,94.15 81.12,89.98 81.52,86.03 81.91,82.34 82.31,78.9 82.7,75.73 83.1,72.89 83.49,70.33 83.89,68.02 84.28,65.96 84.67,64.14 85.07,62.54 85.46,61.18 85.86,60.02 86.25,59.01 86.65,58.16 87.04,57.43 87.44,56.82 87.83,56.33 88.23,55.93 88.62,55.6 89.02,55.32 89.41,55.1 89.81,54.93 90.2,54.79 90.6,54.68 90.99,54.6 91.39,54.53 91.78,54.48 92.17,54.44 92.57,54.41 92.96,54.39 93.36,54.37 93.75,54.36 94.15,54.35 94.54,54.34 94.94,54.34 95.33,54.33 95.73,54.33 96.12,54.33 96.52,54.33 96.91,54.34 97.31,54.34 97.7,54.34 98.1,54.35 98.49,54.36 98.89,54.37 99.28,54.39 99.67,54.41 100.07,54.44 100.46,54.47 100.86,54.52 101.25,54.57 101.65,54.63 102.04,54.71 102.44,54.81 102.83,54.93 103.23,55.07 103.62,55.24 104.02,55.44 104.41,55.67 104.81,55.94 105.2,56.26 105.6,56.62 105.99,57.03 106.39,57.49 106.78,58 107.17,58.57 107.57,59.21 107.96,59.89 108.36,60.64 108.75,61.43 109.15,62.27 109.54,63.16 109.94,64.08 110.33,65.03 110.73,66 111.12,66.97 111.52,67.94 111.91,68.89 112.31,69.8 112.7,70.66 113.1,71.47 113.49,72.2 113.89,72.84 114.28,73.4 114.67,73.82 115.07,74.14 115.46,74.34 115.86,74.42 116.25,74.39 116.65,74.24 117.04,73.95 117.44,73.57 117.83,73.09 118.23,72.53 118.62,71.9 119.02,71.22 119.41,70.49 119.81,69.74 120.2,68.98 120.6,68.23 120.99,67.51 121.39,66.82 121.78,66.18 122.17,65.61 122.57,65.1 122.96,64.67 123.36,64.31 123.75,64.03 124.15,63.84 124.54,63.74 124.94,63.7 125.33,63.74 125.73,63.83 126.12,63.97 126.52,64.16 126.91,64.39 127.31,64.64 127.7,64.89 128.1,65.16 128.49,65.41 128.89,65.65 129.28,65.86 129.67,66.04 130.07,66.19 130.46,66.31 130.86,66.38 131.25,66.42 131.65,66.4 132.04,66.36 132.44,66.28 132.83,66.18 133.23,66.06 133.62,65.91 134.02,65.75 134.41,65.59 134.81,65.42 135.2,65.26 135.6,65.11 135.99,64.96 136.39,64.83 136.78,64.72 137.17,64.62 137.57,64.54 137.96,64.47 138.36,64.42 138.75,64.37 139.15,64.34 139.54,64.32 139.94,64.29 140.33,64.27 140.73,64.26 141.12,64.24 141.52,64.21 141.91,64.18 142.31,64.15 142.7,64.11 143.1,64.07 143.49,64.02 143.89,63.96 144.28,63.91 144.67,63.85 145.07,63.79 145.46,63.72 145.86,63.66 146.25,63.6 146.65,63.54 147.04,63.47 147.44,63.41 147.83,63.36 148.23,63.3 148.62,63.24 149.02,63.19 149.41,63.13 149.81,63.08 150.2,63.02 150.6,62.97 150.99,62.92 151.39,62.87 151.78,62.81 152.17,62.76 152.57,62.71 152.96,62.66 153.36,62.62 153.75,62.57 154.15,62.52 154.54,62.48 154.94,62.43 155.33,62.39 155.73,62.35 156.12,62.31 156.52,62.27 156.91,62.23 157.31,62.19 157.7,62.15 158.1,62.11 158.49,62.08 158.89,62.04 159.28,62 159.67,61.96 160.07,61.92 160.46,61.88 160.86,61.84 161.25,61.8 161.65,61.76 162.04,61.71 162.44,61.67 162.83,61.63 163.23,61.58 163.62,61.54 164.02,61.49 164.41,61.44 164.81,61.4 165.2,61.35 165.6,61.3 165.99,61.25 166.39,61.2 166.78,61.15 167.17,61.1 167.57,61.06 167.96,61.01 168.36,60.96 168.75,60.91 169.15,60.85 169.54,60.8 169.94,60.75 170.33,60.7 170.73,60.65 171.12,60.6 171.52,60.55 171.91,60.5 172.31,60.45 172.7,60.41 173.1,60.36 173.49,60.31 173.89,60.27 174.28,60.22 174.67,60.18 175.07,60.14 175.46,60.1 175.86,60.06 176.25,60.02 176.65,59.98 177.04,59.94 177.44,59.91 177.83,59.88 178.23,59.84 178.62,59.81 179.02,59.78 179.41,59.75 179.81,59.72 180.2,59.69 180.6,59.66 180.99,59.63 181.39,59.6 181.78,59.57 182.17,59.54 182.57,59.51 182.96,59.48 183.36,59.44 183.75,59.41 184.15,59.38 184.54,59.35 184.94,59.31 185.33,59.28 185.73,59.24 186.12,59.21 186.52,59.17 186.91,59.13 187.31,59.09 187.7,59.05 188.1,59.02 188.49,58.98 188.89,58.94 189.28,58.9 189.67,58.86 190.07,58.82 190.46,58.78 190.86,58.74 191.25,58.69 191.65,58.65 192.04,58.61 192.44,58.57 192.83,58.53 193.23,58.49 193.62,58.44 194.02,58.4 194.41,58.36 194.81,58.32 195.2,58.28 195.6,58.23 195.99,58.19 196.39,58.15 196.78,58.11 197.17,58.06 197.57,58.02 197.96,57.98 198.36,57.94 198.75,57.9 199.15,57.86 199.54,57.83 199.94,57.79 200.33,57.75 200.73,57.72 201.12,57.68 201.52,57.65 201.91,57.61 202.31,57.58 202.7,57.55 203.1,57.52 203.49,57.49 203.89,57.46 204.28,57.44 204.67,57.41 205.07,57.38 205.46,57.36 205.86,57.33 206.25,57.3 206.65,57.28 207.04,57.25 207.44,57.23 207.83,57.2 208.23,57.18 208.62,57.15 209.02,57.13 209.41,57.1 209.81,57.08 210.2,57.05 210.6,57.03 210.99,57 211.39,56.97 211.78,56.95 212.17,56.92 212.57,56.9 212.96,56.87 213.36,56.85 213.75,56.82 214.15,56.8 214.54,56.77 214.94,56.75 215.33,56.73 215.73,56.7 216.12,56.68 216.52,56.66 216.91,56.64 217.31,56.61 217.7,56.59 218.1,56.57 218.49,56.55 218.89,56.53 219.28,56.51 219.67,56.49 220.07,56.47 220.46,56.45 220.86,56.43 221.25,56.41 221.65,56.39 222.04,56.36 222.44,56.34 222.83,56.32 223.23,56.3 223.62,56.28 224.02,56.26 224.41,56.23 224.81,56.21 225.2,56.19 225.6,56.16 225.99,56.14 226.39,56.12 226.78,56.09 227.17,56.07 227.57,56.05 227.96,56.02 228.36,56 228.75,55.98 229.15,55.96 229.54,55.93 229.94,55.91 230.33,55.89 230.73,55.87 231.12,55.85 231.52,55.83 231.91,55.81 232.31,55.79 232.7,55.77 233.1,55.75 233.49,55.73 233.89,55.71 234.28,55.69 234.67,55.68 235.07,55.66 235.46,55.64 235.86,55.63 236.25,55.61 236.65,55.59 237.04,55.57 237.44,55.55 237.83,55.54 238.23,55.52 238.62,55.5 239.02,55.47 239.41,55.45 239.81,55.43 240.2,55.4 240.6,55.38 240.99,55.35 241.39,55.32 241.78,55.3 242.17,55.26 242.57,55.23 242.96,55.2 243.36,55.17 243.75,55.13 244.15,55.09 244.54,55.06 244.94,55.02 245.33,54.98 245.73,54.95 246.12,54.91 246.52,54.87 246.91,54.83 247.31,54.8 247.7,54.76 248.1,54.73 248.49,54.69 248.89,54.66 249.28,54.63 249.67,54.6 250.07,54.57 250.46,54.55 250.86,54.52 251.25,54.5 251.65,54.48 252.04,54.46 252.44,54.44 252.83,54.43 253.23,54.41 253.62,54.4 254.02,54.39 254.41,54.38 254.81,54.37 255.2,54.36 255.6,54.36 255.99,54.35 256.39,54.34 256.78,54.34 257.17,54.34 257.57,54.33 257.96,54.33 258.36,54.33 258.75,54.33 259.15,54.33 259.54,54.33 259.94,54.32 260.33,54.32 260.73,54.32 261.12,54.32" stroke-dasharray="none" stroke="rgb(228,26,28)" stroke-width="0.75" opacity="1" stroke-opacity="1" fill="none"/>
          </g>
          <g id="Fig:densplot_01.xyplot.lines.group.5.panel.1.1.1">
            <polyline id="Fig:densplot_01.xyplot.lines.group.5.panel.1.1.1.1" points="61.4,56.31 61.79,56.92 62.18,57.68 62.57,58.63 62.95,59.84 63.34,61.31 63.73,63.1 64.11,65.23 64.5,67.76 64.89,70.73 65.28,74.24 65.66,78.33 66.05,83.01 66.44,88.28 66.83,94.17 67.21,100.67 67.6,107.79 67.99,115.58 68.38,123.93 68.76,132.73 69.15,141.89 69.54,151.31 69.93,160.86 70.31,170.42 70.7,179.77 71.09,188.73 71.47,197.13 71.86,204.83 72.25,211.67 72.64,217.5 73.02,222.2 73.41,225.38 73.8,227.22 74.19,227.67 74.57,226.74 74.96,224.44 75.35,220.81 75.74,215.9 76.12,209.69 76.51,202.53 76.9,194.57 77.29,185.96 77.67,176.87 78.06,167.46 78.45,157.88 78.83,148.34 79.22,139 79.61,129.95 80,121.3 80.38,113.13 80.77,105.51 81.16,98.53 81.55,92.24 81.93,86.57 82.32,81.5 82.71,77.03 83.1,73.12 83.48,69.73 83.87,66.9 84.26,64.51 84.65,62.51 85.03,60.83 85.42,59.45 85.81,58.32 86.19,57.41 86.58,56.71 86.97,56.15 87.36,55.71 87.74,55.36 88.13,55.09 88.52,54.89 88.91,54.73 89.29,54.62 89.68,54.54 90.07,54.48 90.46,54.43 90.84,54.4 91.23,54.38 91.62,54.36 92.01,54.35 92.39,54.35 92.78,54.35 93.17,54.35 93.55,54.35 93.94,54.35 94.33,54.36 94.72,54.37 95.1,54.38 95.49,54.39 95.88,54.4 96.27,54.42 96.65,54.44 97.04,54.46 97.43,54.49 97.82,54.52 98.2,54.55 98.59,54.58 98.98,54.62 99.37,54.66 99.75,54.7 100.14,54.75 100.53,54.8 100.91,54.84 101.3,54.89 101.69,54.94 102.08,54.98 102.46,55.02 102.85,55.06 103.24,55.1 103.63,55.13 104.01,55.15 104.4,55.17 104.79,55.18 105.18,55.19 105.56,55.19 105.95,55.18 106.34,55.17 106.73,55.15 107.11,55.13 107.5,55.11 107.89,55.08 108.27,55.05 108.66,55.02 109.05,54.99 109.44,54.96 109.82,54.94 110.21,54.92 110.6,54.9 110.99,54.88 111.37,54.87 111.76,54.87 112.15,54.86 112.54,54.87 112.92,54.87 113.31,54.88 113.7,54.89 114.09,54.9 114.47,54.92 114.86,54.93 115.25,54.94 115.63,54.96 116.02,54.97 116.41,54.98 116.8,54.99 117.18,54.99 117.57,55 117.96,55 118.35,55 118.73,55 119.12,55 119.51,54.99 119.9,54.99 120.28,54.99 120.67,54.98 121.06,54.98 121.45,54.97 121.83,54.97 122.22,54.97 122.61,54.97 122.99,54.97 123.38,54.97 123.77,54.97 124.16,54.97 124.54,54.98 124.93,54.98 125.32,54.98 125.71,54.98 126.09,54.99 126.48,54.99 126.87,54.99 127.26,55 127.64,55 128.03,55 128.42,55.01 128.81,55.01 129.19,55.02 129.58,55.03 129.97,55.04 130.35,55.05 130.74,55.06 131.13,55.07 131.52,55.09 131.9,55.1 132.29,55.12 132.68,55.14 133.07,55.16 133.45,55.18 133.84,55.2 134.23,55.22 134.62,55.24 135,55.27 135.39,55.29 135.78,55.31 136.17,55.33 136.55,55.36 136.94,55.38 137.33,55.4 137.71,55.42 138.1,55.44 138.49,55.46 138.88,55.48 139.26,55.5 139.65,55.52 140.04,55.54 140.43,55.56 140.81,55.58 141.2,55.6 141.59,55.62 141.98,55.65 142.36,55.67 142.75,55.7 143.14,55.73 143.53,55.76 143.91,55.79 144.3,55.82 144.69,55.86 145.07,55.89 145.46,55.93 145.85,55.97 146.24,56.01 146.62,56.05 147.01,56.09 147.4,56.13 147.79,56.17 148.17,56.21 148.56,56.26 148.95,56.3 149.34,56.34 149.72,56.38 150.11,56.42 150.5,56.46 150.89,56.5 151.27,56.54 151.66,56.57 152.05,56.61 152.43,56.65 152.82,56.69 153.21,56.73 153.6,56.77 153.98,56.8 154.37,56.84 154.76,56.88 155.15,56.92 155.53,56.96 155.92,57 156.31,57.04 156.7,57.08 157.08,57.12 157.47,57.16 157.86,57.2 158.25,57.25 158.63,57.29 159.02,57.34 159.41,57.38 159.79,57.43 160.18,57.47 160.57,57.52 160.96,57.56 161.34,57.61 161.73,57.66 162.12,57.7 162.51,57.74 162.89,57.79 163.28,57.83 163.67,57.87 164.06,57.91 164.44,57.94 164.83,57.98 165.22,58.01 165.61,58.04 165.99,58.07 166.38,58.09 166.77,58.11 167.15,58.13 167.54,58.15 167.93,58.17 168.32,58.18 168.7,58.19 169.09,58.19 169.48,58.2 169.87,58.2 170.25,58.2 170.64,58.2 171.03,58.19 171.42,58.18 171.8,58.17 172.19,58.16 172.58,58.14 172.97,58.13 173.35,58.11 173.74,58.08 174.13,58.06 174.51,58.03 174.9,58 175.29,57.97 175.68,57.94 176.06,57.9 176.45,57.87 176.84,57.83 177.23,57.79 177.61,57.75 178,57.71 178.39,57.67 178.78,57.63 179.16,57.59 179.55,57.55 179.94,57.51 180.33,57.47 180.71,57.43 181.1,57.39 181.49,57.35 181.87,57.32 182.26,57.28 182.65,57.25 183.04,57.21 183.42,57.18 183.81,57.15 184.2,57.12 184.59,57.09 184.97,57.07 185.36,57.05 185.75,57.02 186.14,57 186.52,56.98 186.91,56.97 187.3,56.95 187.69,56.94 188.07,56.93 188.46,56.92 188.85,56.91 189.23,56.9 189.62,56.9 190.01,56.9 190.4,56.89 190.78,56.89 191.17,56.89 191.56,56.9 191.95,56.9 192.33,56.9 192.72,56.9 193.11,56.9 193.5,56.91 193.88,56.91 194.27,56.91 194.66,56.91 195.05,56.92 195.43,56.92 195.82,56.92 196.21,56.92 196.59,56.91 196.98,56.91 197.37,56.9 197.76,56.9 198.14,56.89 198.53,56.88 198.92,56.87 199.31,56.85 199.69,56.84 200.08,56.82 200.47,56.8 200.86,56.78 201.24,56.76 201.63,56.73 202.02,56.7 202.41,56.67 202.79,56.64 203.18,56.61 203.57,56.58 203.95,56.54 204.34,56.51 204.73,56.47 205.12,56.44 205.5,56.4 205.89,56.37 206.28,56.34 206.67,56.3 207.05,56.27 207.44,56.24 207.83,56.21 208.22,56.18 208.6,56.16 208.99,56.14 209.38,56.12 209.77,56.1 210.15,56.08 210.54,56.07 210.93,56.05 211.31,56.05 211.7,56.04 212.09,56.03 212.48,56.03 212.86,56.03 213.25,56.02 213.64,56.02 214.03,56.02 214.41,56.03 214.8,56.03 215.19,56.03 215.58,56.03 215.96,56.03 216.35,56.03 216.74,56.02 217.13,56.02 217.51,56.01 217.9,56.01 218.29,56 218.67,55.99 219.06,55.98 219.45,55.97 219.84,55.96 220.22,55.95 220.61,55.93 221,55.92 221.39,55.9 221.77,55.88 222.16,55.86 222.55,55.85 222.94,55.83 223.32,55.81 223.71,55.79 224.1,55.77 224.49,55.75 224.87,55.73 225.26,55.72 225.65,55.7 226.03,55.68 226.42,55.66 226.81,55.64 227.2,55.63 227.58,55.61 227.97,55.6 228.36,55.58 228.75,55.57 229.13,55.55 229.52,55.54 229.91,55.52 230.3,55.51 230.68,55.5 231.07,55.49 231.46,55.47 231.85,55.46 232.23,55.45 232.62,55.44 233.01,55.43 233.39,55.41 233.78,55.4 234.17,55.39 234.56,55.38 234.94,55.36 235.33,55.35 235.72,55.34 236.11,55.33 236.49,55.31 236.88,55.3 237.27,55.29 237.66,55.27 238.04,55.26 238.43,55.25 238.82,55.23 239.21,55.22 239.59,55.2 239.98,55.19 240.37,55.17 240.75,55.15 241.14,55.14 241.53,55.12 241.92,55.1 242.3,55.07 242.69,55.05 243.08,55.03 243.47,55 243.85,54.97 244.24,54.95 244.63,54.92 245.02,54.89 245.4,54.86 245.79,54.82 246.18,54.79 246.57,54.76 246.95,54.73 247.34,54.7 247.73,54.67 248.11,54.64 248.5,54.61 248.89,54.58 249.28,54.55 249.66,54.53 250.05,54.5 250.44,54.48 250.83,54.46 251.21,54.44 251.6,54.43 251.99,54.41 252.38,54.4 252.76,54.39 253.15,54.38 253.54,54.37 253.93,54.36 254.31,54.35 254.7,54.35 255.09,54.34 255.47,54.34 255.86,54.33 256.25,54.33 256.64,54.33 257.02,54.33 257.41,54.33 257.8,54.33 258.19,54.32 258.57,54.32 258.96,54.32 259.35,54.32" stroke-dasharray="none" stroke="rgb(55,126,184)" stroke-width="0.75" opacity="1" stroke-opacity="1" fill="none"/>
          </g>
          <g id="Fig:densplot_01.xyplot.lines.group.6.panel.1.1.1">
            <polyline id="Fig:densplot_01.xyplot.lines.group.6.panel.1.1.1.1" points="60.37,55.6 60.76,55.97 61.15,56.42 61.54,56.97 61.93,57.64 62.33,58.48 62.72,59.48 63.11,60.68 63.5,62.08 63.89,63.72 64.28,65.62 64.67,67.83 65.06,70.38 65.46,73.25 65.85,76.47 66.24,80.03 66.63,83.93 67.02,88.2 67.41,92.85 67.8,97.8 68.19,103.02 68.59,108.47 68.98,114.08 69.37,119.82 69.76,125.59 70.15,131.3 70.54,136.86 70.93,142.2 71.32,147.22 71.72,151.84 72.11,155.94 72.5,159.38 72.89,162.16 73.28,164.24 73.67,165.58 74.06,166.16 74.45,165.95 74.85,164.83 75.24,162.92 75.63,160.3 76.02,157.03 76.41,153.16 76.8,148.76 77.19,143.88 77.59,138.6 77.98,133.08 78.37,127.41 78.76,121.65 79.15,115.9 79.54,110.21 79.93,104.71 80.32,99.43 80.72,94.41 81.11,89.68 81.5,85.28 81.89,81.21 82.28,77.52 82.67,74.22 83.06,71.27 83.45,68.64 83.85,66.32 84.24,64.3 84.63,62.55 85.02,61.09 85.41,59.85 85.8,58.81 86.19,57.93 86.58,57.2 86.98,56.61 87.37,56.14 87.76,55.77 88.15,55.48 88.54,55.26 88.93,55.1 89.32,54.98 89.71,54.91 90.11,54.89 90.5,54.89 90.89,54.93 91.28,54.99 91.67,55.09 92.06,55.21 92.45,55.36 92.85,55.55 93.24,55.76 93.63,56.01 94.02,56.28 94.41,56.59 94.8,56.92 95.19,57.3 95.58,57.7 95.98,58.13 96.37,58.58 96.76,59.05 97.15,59.53 97.54,60.03 97.93,60.53 98.32,61.02 98.71,61.51 99.11,61.98 99.5,62.42 99.89,62.84 100.28,63.21 100.67,63.54 101.06,63.83 101.45,64.07 101.84,64.26 102.24,64.4 102.63,64.48 103.02,64.52 103.41,64.52 103.8,64.48 104.19,64.41 104.58,64.33 104.97,64.22 105.37,64.12 105.76,64.01 106.15,63.91 106.54,63.83 106.93,63.77 107.32,63.74 107.71,63.73 108.11,63.76 108.5,63.82 108.89,63.91 109.28,64.02 109.67,64.15 110.06,64.31 110.45,64.48 110.84,64.65 111.24,64.83 111.63,65 112.02,65.16 112.41,65.31 112.8,65.44 113.19,65.56 113.58,65.65 113.97,65.72 114.37,65.77 114.76,65.79 115.15,65.8 115.54,65.79 115.93,65.77 116.32,65.73 116.71,65.69 117.1,65.65 117.5,65.59 117.89,65.54 118.28,65.49 118.67,65.44 119.06,65.4 119.45,65.35 119.84,65.31 120.23,65.27 120.63,65.23 121.02,65.2 121.41,65.16 121.8,65.13 122.19,65.09 122.58,65.06 122.97,65.02 123.37,64.98 123.76,64.94 124.15,64.9 124.54,64.85 124.93,64.81 125.32,64.76 125.71,64.71 126.1,64.66 126.5,64.61 126.89,64.56 127.28,64.5 127.67,64.45 128.06,64.4 128.45,64.34 128.84,64.29 129.23,64.24 129.63,64.18 130.02,64.13 130.41,64.07 130.8,64.01 131.19,63.96 131.58,63.9 131.97,63.84 132.36,63.78 132.76,63.73 133.15,63.67 133.54,63.61 133.93,63.55 134.32,63.5 134.71,63.44 135.1,63.38 135.49,63.33 135.89,63.27 136.28,63.22 136.67,63.16 137.06,63.11 137.45,63.05 137.84,63 138.23,62.95 138.63,62.89 139.02,62.84 139.41,62.79 139.8,62.73 140.19,62.68 140.58,62.62 140.97,62.57 141.36,62.51 141.76,62.45 142.15,62.39 142.54,62.33 142.93,62.27 143.32,62.2 143.71,62.14 144.1,62.07 144.49,62 144.89,61.93 145.28,61.86 145.67,61.79 146.06,61.72 146.45,61.64 146.84,61.57 147.23,61.5 147.62,61.42 148.02,61.35 148.41,61.28 148.8,61.2 149.19,61.13 149.58,61.06 149.97,61 150.36,60.93 150.75,60.87 151.15,60.8 151.54,60.74 151.93,60.69 152.32,60.63 152.71,60.58 153.1,60.53 153.49,60.48 153.89,60.43 154.28,60.38 154.67,60.34 155.06,60.3 155.45,60.25 155.84,60.22 156.23,60.18 156.62,60.14 157.02,60.11 157.41,60.07 157.8,60.04 158.19,60.01 158.58,59.98 158.97,59.95 159.36,59.93 159.75,59.9 160.15,59.87 160.54,59.85 160.93,59.82 161.32,59.8 161.71,59.78 162.1,59.75 162.49,59.73 162.88,59.71 163.28,59.68 163.67,59.66 164.06,59.63 164.45,59.61 164.84,59.58 165.23,59.55 165.62,59.52 166.01,59.49 166.41,59.46 166.8,59.43 167.19,59.39 167.58,59.36 167.97,59.32 168.36,59.28 168.75,59.25 169.15,59.21 169.54,59.17 169.93,59.12 170.32,59.08 170.71,59.04 171.1,59 171.49,58.96 171.88,58.92 172.28,58.88 172.67,58.84 173.06,58.8 173.45,58.77 173.84,58.73 174.23,58.7 174.62,58.67 175.01,58.64 175.41,58.61 175.8,58.59 176.19,58.56 176.58,58.54 176.97,58.52 177.36,58.5 177.75,58.48 178.14,58.46 178.54,58.45 178.93,58.43 179.32,58.42 179.71,58.4 180.1,58.38 180.49,58.37 180.88,58.35 181.27,58.33 181.67,58.31 182.06,58.29 182.45,58.27 182.84,58.25 183.23,58.22 183.62,58.2 184.01,58.18 184.41,58.15 184.8,58.12 185.19,58.1 185.58,58.07 185.97,58.04 186.36,58.02 186.75,57.99 187.14,57.96 187.54,57.94 187.93,57.91 188.32,57.89 188.71,57.87 189.1,57.85 189.49,57.82 189.88,57.81 190.27,57.79 190.67,57.77 191.06,57.75 191.45,57.73 191.84,57.72 192.23,57.7 192.62,57.69 193.01,57.67 193.4,57.65 193.8,57.64 194.19,57.62 194.58,57.6 194.97,57.58 195.36,57.56 195.75,57.54 196.14,57.52 196.53,57.5 196.93,57.48 197.32,57.46 197.71,57.43 198.1,57.41 198.49,57.38 198.88,57.36 199.27,57.33 199.67,57.31 200.06,57.28 200.45,57.26 200.84,57.23 201.23,57.21 201.62,57.18 202.01,57.16 202.4,57.13 202.8,57.11 203.19,57.09 203.58,57.07 203.97,57.04 204.36,57.02 204.75,57 205.14,56.98 205.53,56.96 205.93,56.94 206.32,56.92 206.71,56.9 207.1,56.88 207.49,56.86 207.88,56.84 208.27,56.82 208.66,56.8 209.06,56.79 209.45,56.77 209.84,56.75 210.23,56.73 210.62,56.71 211.01,56.69 211.4,56.67 211.79,56.65 212.19,56.63 212.58,56.61 212.97,56.59 213.36,56.57 213.75,56.55 214.14,56.54 214.53,56.52 214.92,56.5 215.32,56.48 215.71,56.47 216.1,56.45 216.49,56.44 216.88,56.42 217.27,56.41 217.66,56.39 218.06,56.38 218.45,56.36 218.84,56.35 219.23,56.34 219.62,56.32 220.01,56.31 220.4,56.29 220.79,56.28 221.19,56.26 221.58,56.25 221.97,56.23 222.36,56.22 222.75,56.2 223.14,56.19 223.53,56.17 223.92,56.16 224.32,56.14 224.71,56.13 225.1,56.11 225.49,56.1 225.88,56.08 226.27,56.07 226.66,56.06 227.05,56.04 227.45,56.03 227.84,56.02 228.23,56.01 228.62,56 229.01,55.98 229.4,55.97 229.79,55.96 230.18,55.95 230.58,55.94 230.97,55.93 231.36,55.92 231.75,55.91 232.14,55.9 232.53,55.88 232.92,55.87 233.32,55.85 233.71,55.84 234.1,55.82 234.49,55.8 234.88,55.78 235.27,55.76 235.66,55.74 236.05,55.72 236.45,55.7 236.84,55.67 237.23,55.64 237.62,55.62 238.01,55.59 238.4,55.56 238.79,55.53 239.18,55.5 239.58,55.47 239.97,55.43 240.36,55.4 240.75,55.36 241.14,55.33 241.53,55.29 241.92,55.26 242.31,55.22 242.71,55.18 243.1,55.14 243.49,55.1 243.88,55.07 244.27,55.03 244.66,54.99 245.05,54.95 245.44,54.91 245.84,54.87 246.23,54.83 246.62,54.8 247.01,54.76 247.4,54.73 247.79,54.69 248.18,54.66 248.58,54.63 248.97,54.6 249.36,54.57 249.75,54.54 250.14,54.52 250.53,54.5 250.92,54.48 251.31,54.46 251.71,54.44 252.1,54.42 252.49,54.41 252.88,54.4 253.27,54.39 253.66,54.38 254.05,54.37 254.44,54.36 254.84,54.35 255.23,54.35 255.62,54.34 256.01,54.34 256.4,54.34 256.79,54.33 257.18,54.33 257.57,54.33 257.97,54.33 258.36,54.33 258.75,54.32 259.14,54.32 259.53,54.32 259.92,54.32 260.31,54.32" stroke-dasharray="none" stroke="rgb(55,126,184)" stroke-width="0.75" opacity="1" stroke-opacity="1" fill="none"/>
          </g>
          <g id="Fig:densplot_01.xyplot.lines.group.7.panel.1.1.1">
            <polyline id="Fig:densplot_01.xyplot.lines.group.7.panel.1.1.1.1" points="61.11,56.22 61.5,56.8 61.89,57.53 62.27,58.43 62.66,59.54 63.05,60.89 63.44,62.51 63.83,64.44 64.21,66.8 64.6,69.58 64.99,72.81 65.38,76.52 65.77,80.75 66.16,85.52 66.54,90.89 66.93,96.92 67.32,103.52 67.71,110.66 68.1,118.31 68.48,126.41 68.87,134.9 69.26,143.71 69.65,152.7 70.04,161.72 70.43,170.63 70.81,179.29 71.2,187.56 71.59,195.29 71.98,202.18 72.37,208.16 72.75,213.14 73.14,217.01 73.53,219.7 73.92,221.14 74.31,221.29 74.7,219.89 75.08,217.26 75.47,213.44 75.86,208.51 76.25,202.58 76.64,195.76 77.02,188.14 77.41,179.89 77.8,171.23 78.19,162.33 78.58,153.32 78.96,144.34 79.35,135.49 79.74,126.96 80.13,118.83 80.52,111.16 80.91,104 81.29,97.38 81.68,91.32 82.07,85.84 82.46,81.03 82.85,76.78 83.23,73.05 83.62,69.8 84.01,67 84.4,64.61 84.79,62.61 85.18,60.98 85.56,59.62 85.95,58.5 86.34,57.59 86.73,56.85 87.12,56.26 87.5,55.8 87.89,55.45 88.28,55.17 88.67,54.95 89.06,54.79 89.45,54.66 89.83,54.57 90.22,54.5 90.61,54.45 91,54.41 91.39,54.39 91.77,54.37 92.16,54.35 92.55,54.34 92.94,54.34 93.33,54.33 93.72,54.33 94.1,54.33 94.49,54.32 94.88,54.32 95.27,54.32 95.66,54.32 96.04,54.32 96.43,54.32 96.82,54.32 97.21,54.32 97.6,54.33 97.99,54.33 98.37,54.33 98.76,54.33 99.15,54.34 99.54,54.34 99.93,54.35 100.31,54.35 100.7,54.36 101.09,54.37 101.48,54.38 101.87,54.4 102.26,54.41 102.64,54.43 103.03,54.46 103.42,54.49 103.81,54.52 104.2,54.55 104.58,54.59 104.97,54.64 105.36,54.69 105.75,54.74 106.14,54.8 106.53,54.86 106.91,54.92 107.3,54.98 107.69,55.05 108.08,55.12 108.47,55.18 108.85,55.24 109.24,55.3 109.63,55.36 110.02,55.41 110.41,55.46 110.79,55.49 111.18,55.52 111.57,55.54 111.96,55.55 112.35,55.55 112.74,55.55 113.12,55.53 113.51,55.51 113.9,55.47 114.29,55.44 114.68,55.39 115.06,55.35 115.45,55.3 115.84,55.25 116.23,55.2 116.62,55.15 117.01,55.11 117.39,55.07 117.78,55.04 118.17,55.01 118.56,54.99 118.95,54.98 119.33,54.98 119.72,54.98 120.11,55 120.5,55.01 120.89,55.04 121.28,55.07 121.66,55.11 122.05,55.14 122.44,55.19 122.83,55.23 123.22,55.27 123.6,55.31 123.99,55.35 124.38,55.39 124.77,55.42 125.16,55.44 125.55,55.47 125.93,55.48 126.32,55.5 126.71,55.5 127.1,55.51 127.49,55.51 127.87,55.51 128.26,55.5 128.65,55.5 129.04,55.5 129.43,55.49 129.82,55.49 130.2,55.5 130.59,55.5 130.98,55.51 131.37,55.52 131.76,55.54 132.14,55.56 132.53,55.58 132.92,55.61 133.31,55.63 133.7,55.67 134.09,55.7 134.47,55.73 134.86,55.77 135.25,55.81 135.64,55.85 136.03,55.88 136.41,55.92 136.8,55.96 137.19,56 137.58,56.04 137.97,56.09 138.36,56.13 138.74,56.17 139.13,56.21 139.52,56.26 139.91,56.3 140.3,56.34 140.68,56.39 141.07,56.43 141.46,56.47 141.85,56.51 142.24,56.55 142.62,56.58 143.01,56.61 143.4,56.64 143.79,56.67 144.18,56.7 144.57,56.72 144.95,56.74 145.34,56.76 145.73,56.78 146.12,56.8 146.51,56.82 146.89,56.83 147.28,56.85 147.67,56.87 148.06,56.89 148.45,56.91 148.84,56.93 149.22,56.95 149.61,56.98 150,57.01 150.39,57.03 150.78,57.07 151.16,57.1 151.55,57.13 151.94,57.17 152.33,57.21 152.72,57.25 153.11,57.29 153.49,57.33 153.88,57.38 154.27,57.42 154.66,57.47 155.05,57.52 155.43,57.56 155.82,57.61 156.21,57.66 156.6,57.71 156.99,57.75 157.38,57.8 157.76,57.85 158.15,57.89 158.54,57.93 158.93,57.97 159.32,58.01 159.7,58.05 160.09,58.08 160.48,58.11 160.87,58.14 161.26,58.16 161.65,58.18 162.03,58.2 162.42,58.22 162.81,58.23 163.2,58.24 163.59,58.25 163.97,58.25 164.36,58.25 164.75,58.25 165.14,58.25 165.53,58.24 165.92,58.23 166.3,58.22 166.69,58.2 167.08,58.18 167.47,58.17 167.86,58.15 168.24,58.13 168.63,58.1 169.02,58.08 169.41,58.06 169.8,58.03 170.19,58.01 170.57,57.98 170.96,57.96 171.35,57.93 171.74,57.91 172.13,57.88 172.51,57.86 172.9,57.84 173.29,57.81 173.68,57.79 174.07,57.77 174.45,57.75 174.84,57.73 175.23,57.71 175.62,57.69 176.01,57.67 176.4,57.66 176.78,57.64 177.17,57.62 177.56,57.6 177.95,57.59 178.34,57.57 178.72,57.55 179.11,57.54 179.5,57.52 179.89,57.51 180.28,57.49 180.67,57.47 181.05,57.46 181.44,57.44 181.83,57.43 182.22,57.41 182.61,57.4 182.99,57.38 183.38,57.37 183.77,57.35 184.16,57.34 184.55,57.33 184.94,57.31 185.32,57.3 185.71,57.29 186.1,57.27 186.49,57.26 186.88,57.25 187.26,57.24 187.65,57.22 188.04,57.21 188.43,57.19 188.82,57.18 189.21,57.16 189.59,57.15 189.98,57.13 190.37,57.11 190.76,57.1 191.15,57.08 191.53,57.06 191.92,57.04 192.31,57.02 192.7,57 193.09,56.98 193.48,56.96 193.86,56.94 194.25,56.92 194.64,56.9 195.03,56.88 195.42,56.86 195.8,56.84 196.19,56.82 196.58,56.81 196.97,56.79 197.36,56.78 197.75,56.76 198.13,56.75 198.52,56.74 198.91,56.72 199.3,56.71 199.69,56.7 200.07,56.69 200.46,56.68 200.85,56.67 201.24,56.67 201.63,56.66 202.02,56.65 202.4,56.64 202.79,56.64 203.18,56.63 203.57,56.63 203.96,56.63 204.34,56.62 204.73,56.62 205.12,56.62 205.51,56.61 205.9,56.61 206.28,56.61 206.67,56.61 207.06,56.6 207.45,56.6 207.84,56.6 208.23,56.59 208.61,56.58 209,56.58 209.39,56.57 209.78,56.56 210.17,56.55 210.55,56.53 210.94,56.52 211.33,56.5 211.72,56.48 212.11,56.46 212.5,56.44 212.88,56.42 213.27,56.39 213.66,56.37 214.05,56.34 214.44,56.31 214.82,56.29 215.21,56.26 215.6,56.23 215.99,56.21 216.38,56.18 216.77,56.15 217.15,56.12 217.54,56.1 217.93,56.07 218.32,56.04 218.71,56.02 219.09,55.99 219.48,55.97 219.87,55.94 220.26,55.92 220.65,55.89 221.04,55.87 221.42,55.85 221.81,55.83 222.2,55.8 222.59,55.78 222.98,55.76 223.36,55.74 223.75,55.72 224.14,55.7 224.53,55.68 224.92,55.66 225.31,55.64 225.69,55.62 226.08,55.6 226.47,55.58 226.86,55.56 227.25,55.54 227.63,55.53 228.02,55.51 228.41,55.49 228.8,55.48 229.19,55.46 229.58,55.45 229.96,55.43 230.35,55.42 230.74,55.41 231.13,55.39 231.52,55.38 231.9,55.37 232.29,55.36 232.68,55.35 233.07,55.34 233.46,55.33 233.85,55.33 234.23,55.32 234.62,55.31 235.01,55.31 235.4,55.3 235.79,55.3 236.17,55.29 236.56,55.29 236.95,55.28 237.34,55.28 237.73,55.28 238.11,55.27 238.5,55.26 238.89,55.26 239.28,55.25 239.67,55.24 240.06,55.23 240.44,55.22 240.83,55.2 241.22,55.18 241.61,55.17 242,55.15 242.38,55.12 242.77,55.1 243.16,55.07 243.55,55.04 243.94,55.01 244.33,54.98 244.71,54.95 245.1,54.91 245.49,54.88 245.88,54.84 246.27,54.81 246.65,54.77 247.04,54.74 247.43,54.7 247.82,54.67 248.21,54.64 248.6,54.6 248.98,54.58 249.37,54.55 249.76,54.52 250.15,54.5 250.54,54.48 250.92,54.46 251.31,54.44 251.7,54.42 252.09,54.41 252.48,54.39 252.87,54.38 253.25,54.37 253.64,54.36 254.03,54.36 254.42,54.35 254.81,54.35 255.19,54.34 255.58,54.34 255.97,54.33 256.36,54.33 256.75,54.33 257.14,54.33 257.52,54.33 257.91,54.32 258.3,54.32 258.69,54.32 259.08,54.32 259.46,54.32" stroke-dasharray="none" stroke="rgb(55,126,184)" stroke-width="0.75" opacity="1" stroke-opacity="1" fill="none"/>
          </g>
        </g>
        <g id="Fig:densplot_01.panel.1.1.off.vp.2">
          <g id="Fig:densplot_01.border.panel.1.1.1">
            <rect id="Fig:densplot_01.border.panel.1.1.1.1" x="44.8" y="42.19" width="231.2" height="197.62" transform="" stroke="rgb(0,0,0)" stroke-dasharray="none" stroke-width="0.75" opacity="1" fill="none" stroke-opacity="1" fill-opacity="0"/>
          </g>
        </g>
        <g id="Fig:densplot_01..1"/>
      </g>
    </g>
  </g>
</svg>